<?xml version="1.0" encoding="utf-8"?>
<svg xmlns="http://www.w3.org/2000/svg" viewBox="0 0 26 26" width="208" height="208">
  <path d="M13 0C5.832031 0 0 5.832031 0 13C0 20.167969 5.832031 26 13 26C20.167969 26 26 20.167969 26 13C26 5.832031 20.167969 0 13 0 Z M 13 2C19.085938 2 24 6.914063 24 13C24 19.085938 19.085938 24 13 24C6.914063 24 2 19.085938 2 13C2 6.914063 6.914063 2 13 2 Z M 13 6C9.101563 6 6 9.101563 6 13C6 16.898438 9.101563 20 13 20C16.199219 20 18.789063 17.898438 19.6875 15L17.59375 15C16.792969 16.800781 15 18 13 18C10.199219 18 8 15.800781 8 13C8 10.199219 10.199219 8 13 8C15 8 16.792969 9.199219 17.59375 11L19.6875 11C18.789063 8.101563 16.199219 6 13 6Z" fill="#5B5B5B" />
</svg>